<mxfile host="app.diagrams.net" modified="2023-11-29T01:17:12.988Z" agent="Mozilla/5.0 (Windows NT 10.0; Win64; x64) AppleWebKit/537.36 (KHTML, like Gecko) Chrome/119.0.0.0 Safari/537.36" etag="hfS2A8CboctBgpreEuRZ" version="22.1.4" type="device">
  <diagram name="Page-1" id="O-3tcLN8pZr2hJ6-7wyD">
    <mxGraphModel dx="882" dy="578" grid="1" gridSize="10" guides="1" tooltips="1" connect="1" arrows="1" fold="1" page="1" pageScale="1" pageWidth="850" pageHeight="1100" math="0" shadow="0">
      <root>
        <mxCell id="0" />
        <mxCell id="1" parent="0" />
        <mxCell id="lmU6K4gp_w76DyAgyafw-14" style="edgeStyle=orthogonalEdgeStyle;rounded=0;orthogonalLoop=1;jettySize=auto;html=1;exitX=0.5;exitY=1;exitDx=0;exitDy=0;entryX=0.5;entryY=0;entryDx=0;entryDy=0;" edge="1" parent="1" source="lmU6K4gp_w76DyAgyafw-1" target="lmU6K4gp_w76DyAgyafw-9">
          <mxGeometry relative="1" as="geometry" />
        </mxCell>
        <mxCell id="lmU6K4gp_w76DyAgyafw-1" value="Video" style="rounded=1;whiteSpace=wrap;html=1;" vertex="1" parent="1">
          <mxGeometry x="80" y="40" width="120" height="60" as="geometry" />
        </mxCell>
        <mxCell id="lmU6K4gp_w76DyAgyafw-15" style="edgeStyle=orthogonalEdgeStyle;rounded=0;orthogonalLoop=1;jettySize=auto;html=1;exitX=0.5;exitY=1;exitDx=0;exitDy=0;entryX=0.5;entryY=0;entryDx=0;entryDy=0;" edge="1" parent="1" source="lmU6K4gp_w76DyAgyafw-2" target="lmU6K4gp_w76DyAgyafw-10">
          <mxGeometry relative="1" as="geometry" />
        </mxCell>
        <mxCell id="lmU6K4gp_w76DyAgyafw-2" value="Text queries (1 positive and n-1 negative)" style="rounded=1;whiteSpace=wrap;html=1;" vertex="1" parent="1">
          <mxGeometry x="400" y="40" width="120" height="60" as="geometry" />
        </mxCell>
        <mxCell id="lmU6K4gp_w76DyAgyafw-3" value="" style="swimlane;startSize=0;" vertex="1" parent="1">
          <mxGeometry x="40" y="160" width="520" height="160" as="geometry" />
        </mxCell>
        <mxCell id="lmU6K4gp_w76DyAgyafw-9" value="Video encoder" style="rounded=1;whiteSpace=wrap;html=1;" vertex="1" parent="lmU6K4gp_w76DyAgyafw-3">
          <mxGeometry x="40" y="40" width="120" height="60" as="geometry" />
        </mxCell>
        <mxCell id="lmU6K4gp_w76DyAgyafw-10" value="Text encoder" style="rounded=1;whiteSpace=wrap;html=1;" vertex="1" parent="lmU6K4gp_w76DyAgyafw-3">
          <mxGeometry x="360" y="40" width="120" height="60" as="geometry" />
        </mxCell>
        <mxCell id="lmU6K4gp_w76DyAgyafw-11" value="ML model" style="text;html=1;strokeColor=none;fillColor=none;align=center;verticalAlign=middle;whiteSpace=wrap;rounded=0;" vertex="1" parent="lmU6K4gp_w76DyAgyafw-3">
          <mxGeometry x="460" width="60" height="30" as="geometry" />
        </mxCell>
        <mxCell id="lmU6K4gp_w76DyAgyafw-18" style="edgeStyle=orthogonalEdgeStyle;rounded=0;orthogonalLoop=1;jettySize=auto;html=1;exitX=0.5;exitY=1;exitDx=0;exitDy=0;entryX=0.25;entryY=0;entryDx=0;entryDy=0;" edge="1" parent="1" source="lmU6K4gp_w76DyAgyafw-4" target="lmU6K4gp_w76DyAgyafw-6">
          <mxGeometry relative="1" as="geometry" />
        </mxCell>
        <mxCell id="lmU6K4gp_w76DyAgyafw-4" value="Video embedding" style="rounded=1;whiteSpace=wrap;html=1;" vertex="1" parent="1">
          <mxGeometry x="80" y="400" width="120" height="60" as="geometry" />
        </mxCell>
        <mxCell id="lmU6K4gp_w76DyAgyafw-19" style="edgeStyle=orthogonalEdgeStyle;rounded=0;orthogonalLoop=1;jettySize=auto;html=1;exitX=0.5;exitY=1;exitDx=0;exitDy=0;entryX=0.75;entryY=0;entryDx=0;entryDy=0;" edge="1" parent="1" source="lmU6K4gp_w76DyAgyafw-5" target="lmU6K4gp_w76DyAgyafw-6">
          <mxGeometry relative="1" as="geometry" />
        </mxCell>
        <mxCell id="lmU6K4gp_w76DyAgyafw-5" value="Text embeddings (1 to n)" style="rounded=1;whiteSpace=wrap;html=1;" vertex="1" parent="1">
          <mxGeometry x="400" y="400" width="120" height="60" as="geometry" />
        </mxCell>
        <mxCell id="lmU6K4gp_w76DyAgyafw-20" style="edgeStyle=orthogonalEdgeStyle;rounded=0;orthogonalLoop=1;jettySize=auto;html=1;exitX=0.5;exitY=1;exitDx=0;exitDy=0;entryX=0.5;entryY=0;entryDx=0;entryDy=0;" edge="1" parent="1" source="lmU6K4gp_w76DyAgyafw-6" target="lmU6K4gp_w76DyAgyafw-7">
          <mxGeometry relative="1" as="geometry" />
        </mxCell>
        <mxCell id="lmU6K4gp_w76DyAgyafw-6" value="Dot products" style="rounded=1;whiteSpace=wrap;html=1;" vertex="1" parent="1">
          <mxGeometry x="240" y="520" width="120" height="60" as="geometry" />
        </mxCell>
        <mxCell id="lmU6K4gp_w76DyAgyafw-21" style="edgeStyle=orthogonalEdgeStyle;rounded=0;orthogonalLoop=1;jettySize=auto;html=1;exitX=0.5;exitY=1;exitDx=0;exitDy=0;entryX=0.5;entryY=0;entryDx=0;entryDy=0;" edge="1" parent="1" source="lmU6K4gp_w76DyAgyafw-7" target="lmU6K4gp_w76DyAgyafw-8">
          <mxGeometry relative="1" as="geometry" />
        </mxCell>
        <mxCell id="lmU6K4gp_w76DyAgyafw-7" value="Predictions" style="rounded=1;whiteSpace=wrap;html=1;" vertex="1" parent="1">
          <mxGeometry x="240" y="640" width="120" height="60" as="geometry" />
        </mxCell>
        <mxCell id="lmU6K4gp_w76DyAgyafw-8" value="Ground truth" style="rounded=1;whiteSpace=wrap;html=1;" vertex="1" parent="1">
          <mxGeometry x="240" y="760" width="120" height="60" as="geometry" />
        </mxCell>
        <mxCell id="lmU6K4gp_w76DyAgyafw-16" style="edgeStyle=orthogonalEdgeStyle;rounded=0;orthogonalLoop=1;jettySize=auto;html=1;exitX=0.5;exitY=1;exitDx=0;exitDy=0;entryX=0.5;entryY=0;entryDx=0;entryDy=0;" edge="1" parent="1" source="lmU6K4gp_w76DyAgyafw-9" target="lmU6K4gp_w76DyAgyafw-4">
          <mxGeometry relative="1" as="geometry" />
        </mxCell>
        <mxCell id="lmU6K4gp_w76DyAgyafw-17" style="edgeStyle=orthogonalEdgeStyle;rounded=0;orthogonalLoop=1;jettySize=auto;html=1;exitX=0.5;exitY=1;exitDx=0;exitDy=0;entryX=0.5;entryY=0;entryDx=0;entryDy=0;" edge="1" parent="1" source="lmU6K4gp_w76DyAgyafw-10" target="lmU6K4gp_w76DyAgyafw-5">
          <mxGeometry relative="1" as="geometry" />
        </mxCell>
        <mxCell id="lmU6K4gp_w76DyAgyafw-22" value="Softmax" style="text;html=1;strokeColor=none;fillColor=none;align=center;verticalAlign=middle;whiteSpace=wrap;rounded=0;" vertex="1" parent="1">
          <mxGeometry x="300" y="600" width="100" height="30" as="geometry" />
        </mxCell>
        <mxCell id="lmU6K4gp_w76DyAgyafw-23" value="Cross-entropy" style="text;html=1;strokeColor=none;fillColor=none;align=center;verticalAlign=middle;whiteSpace=wrap;rounded=0;" vertex="1" parent="1">
          <mxGeometry x="300" y="720" width="100" height="30" as="geometry" />
        </mxCell>
      </root>
    </mxGraphModel>
  </diagram>
</mxfile>
